# Blender v2.79 (sub 0) OBJ File: ''
# www.blender.org
mtllib test.mtl
o Cube_Cube.001
v -1.000000 -0.714632 1.000000
v -1.000000 1.000000 1.000000
v -1.000000 -0.714632 -1.000000
v -1.000000 0.714632 -1.000000
v 1.000000 -0.714632 1.000000
v 1.000000 0.714632 1.000000
v 1.000000 -0.714632 -1.000000
v 1.000000 0.714632 -1.000000
v -1.000000 -1.000000 -1.000000
v -1.000000 -1.000000 1.000000
v -1.000000 0.714632 1.000000
v -1.000000 1.000000 -1.000000
v 1.000000 -1.000000 -1.000000
v 1.000000 1.000000 -1.000000
v 1.000000 -1.000000 1.000000
v 1.000000 1.000000 1.000000
v -0.721203 -0.714632 0.721203
v -0.721203 0.714632 0.721203
v -0.721203 0.714632 -0.721203
v -0.721203 -0.714632 -0.721203
v 0.721203 0.714632 -0.721203
v 0.721203 -0.714632 -0.721203
v 0.721203 0.714632 0.721203
v 0.721203 -0.714632 0.721203
vn 0.0000 -1.0000 -0.0000
vn 0.0000 1.0000 0.0000
vn -1.0000 0.0000 0.0000
vn 0.0000 0.0000 -1.0000
vn 1.0000 0.0000 0.0000
vn 0.0000 0.0000 1.0000
usemtl None
s off
f 8//1 19//1 4//1
f 6//1 21//1 8//1
f 11//1 23//1 6//1
f 1//2 20//2 3//2
f 13//1 10//1 9//1
f 12//2 16//2 14//2
f 3//3 10//3 1//3
f 11//3 12//3 4//3
f 7//4 9//4 3//4
f 4//4 14//4 8//4
f 5//5 13//5 7//5
f 8//5 16//5 6//5
f 1//6 15//6 5//6
f 6//6 2//6 11//6
f 18//3 20//3 17//3
f 19//4 22//4 20//4
f 21//5 24//5 22//5
f 23//6 17//6 24//6
f 4//1 18//1 11//1
f 5//2 17//2 1//2
f 7//2 24//2 5//2
f 3//2 22//2 7//2
f 8//1 21//1 19//1
f 6//1 23//1 21//1
f 11//1 18//1 23//1
f 1//2 17//2 20//2
f 13//1 15//1 10//1
f 12//2 2//2 16//2
f 3//3 9//3 10//3
f 11//3 2//3 12//3
f 7//4 13//4 9//4
f 4//4 12//4 14//4
f 5//5 15//5 13//5
f 8//5 14//5 16//5
f 1//6 10//6 15//6
f 6//6 16//6 2//6
f 18//3 19//3 20//3
f 19//4 21//4 22//4
f 21//5 23//5 24//5
f 23//6 18//6 17//6
f 4//1 19//1 18//1
f 5//2 24//2 17//2
f 7//2 22//2 24//2
f 3//2 20//2 22//2
